<svg width="500" height="500" viewBox="0 0 500 500" fill="none" xmlns="http://www.w3.org/2000/svg">
<g clip-path="url(#clip0_131_22)">
<rect width="500" height="500" rx="100" fill="url(#paint0_linear_131_22)"/>
<mask id="path-2-outside-1_131_22" maskUnits="userSpaceOnUse" x="125" y="26" width="250" height="456" fill="black">
<rect fill="white" x="125" y="26" width="250" height="456"/>
<path d="M250.327 479.5C209.077 479.5 179.193 470.975 160.677 453.925C142.16 436.875 132.077 408.55 130.427 368.95C130.243 363.083 130.152 356.667 130.152 349.7C130.152 342.55 130.335 335.492 130.702 328.525C131.068 321.375 131.71 314.867 132.627 309H210.177C209.443 322.383 208.985 335.583 208.802 348.6C208.618 361.617 209.077 373.533 210.177 384.35C211.093 393.333 214.943 400.3 221.727 405.25C228.693 410.017 238.227 412.4 250.327 412.4C261.693 412.4 270.677 410.017 277.277 405.25C283.877 400.3 287.727 393.333 288.827 384.35C289.56 378.117 290.018 371.975 290.202 365.925C290.568 359.692 290.568 353.55 290.202 347.5C290.018 341.267 289.56 335.033 288.827 328.8C288.093 321.1 284.793 314.042 278.927 307.625C273.06 301.208 265.727 297.083 256.927 295.25L206.327 283.7C187.077 279.3 171.86 272.425 160.677 263.075C149.493 253.725 141.427 242.083 136.477 228.15C131.527 214.217 128.777 198.083 128.227 179.75C128.043 171.683 127.952 164.533 127.952 158.3C127.952 151.883 128.043 145.283 128.227 138.5C129.327 112.283 134.185 91.1083 142.802 74.975C151.418 58.8417 164.435 47.1083 181.852 39.775C199.452 32.2583 222.277 28.5 250.327 28.5C291.393 28.5 321.093 37.025 339.427 54.075C357.943 70.9416 368.027 99.0833 369.677 138.5C370.043 146.383 370.043 156.008 369.677 167.375C369.493 178.742 369.127 189.283 368.577 199H289.377C289.927 186.35 290.293 173.7 290.477 161.05C290.66 148.4 290.477 135.75 289.927 123.1C289.743 114.3 286.168 107.517 279.202 102.75C272.418 97.9833 262.793 95.6 250.327 95.6C238.777 95.6 229.518 97.9833 222.552 102.75C215.768 107.517 211.827 114.3 210.727 123.1C209.627 132.45 209.077 141.892 209.077 151.425C209.077 160.958 209.627 170.4 210.727 179.75C211.643 187.083 214.21 193.867 218.427 200.1C222.643 206.15 229.427 210.183 238.777 212.2L283.327 221.55C304.043 225.95 320.727 233.008 333.377 242.725C346.21 252.258 355.652 264.267 361.702 278.75C367.752 293.233 371.143 309.917 371.877 328.8C372.06 333.017 372.152 337.417 372.152 342C372.152 346.583 372.06 351.167 371.877 355.75C371.693 360.333 371.51 364.733 371.327 368.95C369.677 408.55 359.502 436.875 340.802 453.925C322.102 470.975 291.943 479.5 250.327 479.5Z"/>
</mask>
<path d="M250.327 479.5C209.077 479.5 179.193 470.975 160.677 453.925C142.16 436.875 132.077 408.55 130.427 368.95C130.243 363.083 130.152 356.667 130.152 349.7C130.152 342.55 130.335 335.492 130.702 328.525C131.068 321.375 131.71 314.867 132.627 309H210.177C209.443 322.383 208.985 335.583 208.802 348.6C208.618 361.617 209.077 373.533 210.177 384.35C211.093 393.333 214.943 400.3 221.727 405.25C228.693 410.017 238.227 412.4 250.327 412.4C261.693 412.4 270.677 410.017 277.277 405.25C283.877 400.3 287.727 393.333 288.827 384.35C289.56 378.117 290.018 371.975 290.202 365.925C290.568 359.692 290.568 353.55 290.202 347.5C290.018 341.267 289.56 335.033 288.827 328.8C288.093 321.1 284.793 314.042 278.927 307.625C273.06 301.208 265.727 297.083 256.927 295.25L206.327 283.7C187.077 279.3 171.86 272.425 160.677 263.075C149.493 253.725 141.427 242.083 136.477 228.15C131.527 214.217 128.777 198.083 128.227 179.75C128.043 171.683 127.952 164.533 127.952 158.3C127.952 151.883 128.043 145.283 128.227 138.5C129.327 112.283 134.185 91.1083 142.802 74.975C151.418 58.8417 164.435 47.1083 181.852 39.775C199.452 32.2583 222.277 28.5 250.327 28.5C291.393 28.5 321.093 37.025 339.427 54.075C357.943 70.9416 368.027 99.0833 369.677 138.5C370.043 146.383 370.043 156.008 369.677 167.375C369.493 178.742 369.127 189.283 368.577 199H289.377C289.927 186.35 290.293 173.7 290.477 161.05C290.66 148.4 290.477 135.75 289.927 123.1C289.743 114.3 286.168 107.517 279.202 102.75C272.418 97.9833 262.793 95.6 250.327 95.6C238.777 95.6 229.518 97.9833 222.552 102.75C215.768 107.517 211.827 114.3 210.727 123.1C209.627 132.45 209.077 141.892 209.077 151.425C209.077 160.958 209.627 170.4 210.727 179.75C211.643 187.083 214.21 193.867 218.427 200.1C222.643 206.15 229.427 210.183 238.777 212.2L283.327 221.55C304.043 225.95 320.727 233.008 333.377 242.725C346.21 252.258 355.652 264.267 361.702 278.75C367.752 293.233 371.143 309.917 371.877 328.8C372.06 333.017 372.152 337.417 372.152 342C372.152 346.583 372.06 351.167 371.877 355.75C371.693 360.333 371.51 364.733 371.327 368.95C369.677 408.55 359.502 436.875 340.802 453.925C322.102 470.975 291.943 479.5 250.327 479.5Z" fill="url(#paint1_linear_131_22)"/>
<path d="M160.677 453.925L162.031 452.454L162.031 452.454L160.677 453.925ZM130.427 368.95L128.428 369.012C128.428 369.019 128.428 369.026 128.428 369.033L130.427 368.95ZM130.702 328.525L132.699 328.63L132.699 328.627L130.702 328.525ZM132.627 309V307C131.641 307 130.803 307.718 130.651 308.691L132.627 309ZM210.177 309L212.174 309.109C212.204 308.561 212.007 308.024 211.629 307.625C211.251 307.226 210.726 307 210.177 307V309ZM208.802 348.6L206.802 348.572L206.802 348.572L208.802 348.6ZM210.177 384.35L208.187 384.552L208.187 384.553L210.177 384.35ZM221.727 405.25L220.548 406.866C220.564 406.878 220.581 406.889 220.597 406.901L221.727 405.25ZM277.277 405.25L278.448 406.871C278.457 406.864 278.467 406.857 278.477 406.85L277.277 405.25ZM288.827 384.35L290.812 384.593L290.813 384.584L288.827 384.35ZM290.202 365.925L288.205 365.808C288.204 365.826 288.203 365.845 288.202 365.864L290.202 365.925ZM290.202 347.5L288.202 347.559C288.203 347.58 288.204 347.6 288.205 347.621L290.202 347.5ZM288.827 328.8L286.836 328.99C286.837 329.004 286.839 329.019 286.84 329.034L288.827 328.8ZM278.927 307.625L277.451 308.975L277.451 308.975L278.927 307.625ZM256.927 295.25L256.482 297.2C256.494 297.203 256.506 297.205 256.519 297.208L256.927 295.25ZM206.327 283.7L205.881 285.65L205.881 285.65L206.327 283.7ZM136.477 228.15L138.361 227.48L138.361 227.48L136.477 228.15ZM128.227 179.75L126.227 179.795C126.227 179.8 126.227 179.805 126.227 179.81L128.227 179.75ZM128.227 138.5L126.228 138.416C126.228 138.426 126.228 138.436 126.227 138.446L128.227 138.5ZM142.802 74.975L141.037 74.0328L141.037 74.0328L142.802 74.975ZM181.852 39.775L182.628 41.6183L182.637 41.6142L181.852 39.775ZM339.427 54.075L338.065 55.5395C338.07 55.5442 338.075 55.5489 338.08 55.5535L339.427 54.075ZM369.677 138.5L367.678 138.584L367.679 138.593L369.677 138.5ZM369.677 167.375L367.678 167.311C367.677 167.321 367.677 167.332 367.677 167.343L369.677 167.375ZM368.577 199V201C369.637 201 370.513 200.172 370.573 199.113L368.577 199ZM289.377 199L287.378 198.913C287.355 199.458 287.555 199.989 287.932 200.383C288.309 200.777 288.831 201 289.377 201V199ZM289.927 123.1L287.927 123.142C287.927 123.157 287.928 123.172 287.928 123.187L289.927 123.1ZM279.202 102.75L278.052 104.386C278.058 104.391 278.065 104.396 278.072 104.401L279.202 102.75ZM222.552 102.75L221.422 101.099C221.415 101.104 221.408 101.109 221.402 101.114L222.552 102.75ZM210.727 123.1L208.742 122.852C208.741 122.857 208.741 122.862 208.74 122.866L210.727 123.1ZM210.727 179.75L208.74 179.984C208.741 179.988 208.741 179.993 208.742 179.998L210.727 179.75ZM218.427 200.1L216.77 201.221C216.775 201.228 216.78 201.236 216.786 201.244L218.427 200.1ZM238.777 212.2L238.355 214.155L238.366 214.157L238.777 212.2ZM283.327 221.55L283.742 219.594L283.737 219.593L283.327 221.55ZM333.377 242.725L332.158 244.311C332.167 244.318 332.175 244.324 332.184 244.33L333.377 242.725ZM371.877 328.8L369.878 328.878L369.878 328.887L371.877 328.8ZM371.877 355.75L373.875 355.83L373.875 355.83L371.877 355.75ZM371.327 368.95L369.328 368.863L369.328 368.867L371.327 368.95ZM340.802 453.925L339.454 452.447L339.454 452.447L340.802 453.925ZM250.327 477.5C209.277 477.5 180.005 469.003 162.031 452.454L159.322 455.396C178.382 472.947 208.876 481.5 250.327 481.5V477.5ZM162.031 452.454C144.078 435.923 134.065 408.232 132.425 368.867L128.428 369.033C130.088 408.868 140.242 437.827 159.322 455.396L162.031 452.454ZM132.426 368.888C132.243 363.045 132.152 356.65 132.152 349.7H128.152C128.152 356.684 128.243 363.122 128.428 369.012L132.426 368.888ZM132.152 349.7C132.152 342.584 132.334 335.561 132.699 328.63L128.704 328.42C128.336 335.422 128.152 342.516 128.152 349.7H132.152ZM132.699 328.627C133.063 321.533 133.699 315.095 134.603 309.309L130.651 308.691C129.721 314.638 129.074 321.217 128.704 328.423L132.699 328.627ZM132.627 311H210.177V307H132.627V311ZM208.18 308.891C207.445 322.3 206.985 335.527 206.802 348.572L210.801 348.628C210.984 335.639 211.442 322.466 212.174 309.109L208.18 308.891ZM206.802 348.572C206.618 361.651 207.078 373.646 208.187 384.552L212.166 384.148C211.075 373.421 210.619 361.582 210.801 348.628L206.802 348.572ZM208.187 384.553C209.156 394.053 213.268 401.554 220.548 406.866L222.906 403.634C216.618 399.046 213.03 392.614 212.166 384.147L208.187 384.553ZM220.597 406.901C228.012 411.974 237.991 414.4 250.327 414.4V410.4C238.462 410.4 229.374 408.059 222.856 403.599L220.597 406.901ZM250.327 414.4C261.952 414.4 271.395 411.965 278.448 406.871L276.106 403.629C269.958 408.069 261.435 410.4 250.327 410.4V414.4ZM278.477 406.85C285.557 401.54 289.653 394.059 290.812 384.593L286.841 384.107C285.8 392.608 282.196 399.06 276.077 403.65L278.477 406.85ZM290.813 384.584C291.553 378.295 292.016 372.096 292.201 365.986L288.202 365.864C288.021 371.854 287.567 377.938 286.84 384.116L290.813 384.584ZM292.198 366.042C292.569 359.732 292.57 353.511 292.198 347.379L288.205 347.621C288.567 353.589 288.567 359.651 288.205 365.808L292.198 366.042ZM292.201 347.441C292.016 341.149 291.553 334.857 290.813 328.566L286.84 329.034C287.567 335.209 288.021 341.384 288.202 347.559L292.201 347.441ZM290.818 328.61C290.038 320.425 286.524 312.971 280.403 306.275L277.451 308.975C283.062 315.112 286.148 321.775 286.836 328.99L290.818 328.61ZM280.403 306.275C274.243 299.538 266.531 295.208 257.334 293.292L256.519 297.208C264.922 298.959 271.877 302.879 277.451 308.975L280.403 306.275ZM257.372 293.3L206.772 281.75L205.881 285.65L256.482 297.2L257.372 293.3ZM206.772 281.75C187.726 277.397 172.83 270.629 161.959 261.541L159.394 264.609C170.89 274.221 186.427 281.203 205.881 285.65L206.772 281.75ZM161.959 261.541C151.054 252.423 143.193 241.082 138.361 227.48L134.592 228.82C139.66 243.085 147.932 255.027 159.394 264.609L161.959 261.541ZM138.361 227.48C133.495 213.784 130.771 197.863 130.226 179.69L126.227 179.81C126.782 198.303 129.558 214.65 134.592 228.82L138.361 227.48ZM130.226 179.705C130.043 171.649 129.952 164.515 129.952 158.3H125.952C125.952 164.552 126.043 171.718 126.227 179.795L130.226 179.705ZM129.952 158.3C129.952 151.902 130.043 145.32 130.226 138.554L126.227 138.446C126.044 145.246 125.952 151.864 125.952 158.3H129.952ZM130.225 138.584C131.317 112.546 136.138 91.6962 144.566 75.9172L141.037 74.0328C132.231 90.5204 127.336 112.021 126.228 138.416L130.225 138.584ZM144.566 75.9172C152.959 60.203 165.619 48.7799 182.628 41.6182L181.075 37.9317C163.251 45.4367 149.878 57.4803 141.037 74.0328L144.566 75.9172ZM182.637 41.6142C199.901 34.241 222.432 30.5 250.327 30.5V26.5C222.122 26.5 199.002 30.2756 181.066 37.9357L182.637 41.6142ZM250.327 30.5C291.193 30.5 320.276 38.9965 338.065 55.5395L340.789 52.6104C321.91 35.0535 291.594 26.5 250.327 26.5V30.5ZM338.08 55.5535C356.026 71.9005 366.038 99.4027 367.678 138.584L371.675 138.416C370.015 98.7639 359.861 69.9828 340.773 52.5964L338.08 55.5535ZM367.679 138.593C368.042 146.407 368.043 155.976 367.678 167.311L371.676 167.439C372.043 156.041 372.044 146.36 371.674 138.407L367.679 138.593ZM367.677 167.343C367.494 178.687 367.128 189.201 366.58 198.887L370.573 199.113C371.125 189.365 371.493 178.797 371.676 167.407L367.677 167.343ZM368.577 197H289.377V201H368.577V197ZM291.375 199.087C291.926 186.418 292.293 173.748 292.476 161.079L288.477 161.021C288.294 173.652 287.928 186.282 287.378 198.913L291.375 199.087ZM292.476 161.079C292.66 148.39 292.476 135.702 291.925 123.013L287.928 123.187C288.477 135.798 288.66 148.41 288.477 161.021L292.476 161.079ZM291.926 123.058C291.73 113.646 287.857 106.249 280.331 101.099L278.072 104.401C284.48 108.785 287.756 114.954 287.927 123.142L291.926 123.058ZM280.351 101.114C273.101 96.0185 263.009 93.6 250.327 93.6V97.6C262.577 97.6 271.736 99.9482 278.052 104.386L280.351 101.114ZM250.327 93.6C238.518 93.6 228.824 96.0353 221.422 101.099L223.681 104.401C230.213 99.9314 239.035 97.6 250.327 97.6V93.6ZM221.402 101.114C214.122 106.229 209.906 113.536 208.742 122.852L212.711 123.348C213.747 115.064 217.415 108.804 223.701 104.386L221.402 101.114ZM208.74 122.866C207.631 132.295 207.077 141.815 207.077 151.425H211.077C211.077 141.969 211.622 132.605 212.713 123.334L208.74 122.866ZM207.077 151.425C207.077 161.035 207.631 170.555 208.74 179.984L212.713 179.516C211.622 170.245 211.077 160.881 211.077 151.425H207.077ZM208.742 179.998C209.698 187.65 212.38 194.731 216.77 201.221L220.083 198.979C216.04 193.002 213.588 186.517 212.711 179.502L208.742 179.998ZM216.786 201.244C221.369 207.82 228.662 212.064 238.355 214.155L239.198 210.245C230.191 208.302 223.917 204.48 220.067 198.956L216.786 201.244ZM238.366 214.157L282.916 223.507L283.737 219.593L239.187 210.243L238.366 214.157ZM282.911 223.506C303.427 227.864 319.809 234.826 332.158 244.311L334.595 241.139C321.644 231.191 304.659 224.036 283.742 219.594L282.911 223.506ZM332.184 244.33C344.734 253.654 353.947 265.376 359.856 279.521L363.547 277.979C357.356 263.158 347.686 250.863 334.569 241.12L332.184 244.33ZM359.856 279.521C365.798 293.744 369.152 310.185 369.878 328.878L373.875 328.722C373.134 309.648 369.706 292.722 363.547 277.979L359.856 279.521ZM369.878 328.887C370.06 333.072 370.152 337.443 370.152 342H374.152C374.152 337.39 374.059 332.961 373.875 328.713L369.878 328.887ZM370.152 342C370.152 346.557 370.06 351.113 369.878 355.67L373.875 355.83C374.059 351.22 374.152 346.61 374.152 342H370.152ZM369.878 355.67C369.695 360.251 369.512 364.649 369.328 368.863L373.325 369.037C373.508 364.818 373.692 360.415 373.875 355.83L369.878 355.67ZM369.328 368.867C367.688 408.227 357.586 435.915 339.454 452.447L342.149 455.403C361.417 437.835 371.665 408.873 373.325 369.033L369.328 368.867ZM339.454 452.447C321.297 469.002 291.746 477.5 250.327 477.5V481.5C292.14 481.5 322.906 472.948 342.149 455.403L339.454 452.447Z" fill="white" mask="url(#path-2-outside-1_131_22)"/>
</g>
<defs>
<linearGradient id="paint0_linear_131_22" x1="250" y1="0" x2="250" y2="500" gradientUnits="userSpaceOnUse">
<stop stop-color="#CAD5E2"/>
<stop offset="0.5" stop-color="#73849B"/>
<stop offset="1" stop-color="#CAD5E2"/>
</linearGradient>
<linearGradient id="paint1_linear_131_22" x1="250" y1="-67" x2="250" y2="474" gradientUnits="userSpaceOnUse">
<stop/>
<stop offset="0.5" stop-color="#62748E"/>
<stop offset="1"/>
</linearGradient>
<clipPath id="clip0_131_22">
<rect width="500" height="500" fill="white"/>
</clipPath>
</defs>
</svg>
